<svg display="none" xmlns="http://www.w3.org/2000/svg">

    <!-- tooltip-icon -->
    <symbol id="svg-tooltip" viewBox="0 0 3 13">
        <g>
            <path d="M1.54885 1.8695C0.955247 1.8695 0.658447 1.5895 0.658447 1.0295C0.658447 0.480698 0.955247 0.206299 1.54885 0.206299C2.14245 0.206299 2.43925 0.480698 2.43925 1.0295C2.43925 1.5895 2.14245 1.8695 1.54885 1.8695ZM1.54885 12.0839C1.10085 12.0839 0.876847 11.8375 0.876847 11.3447V4.4735C0.876847 3.9919 1.10085 3.7511 1.54885 3.7511C2.00805 3.7511 2.23765 3.9919 2.23765 4.4735V11.3447C2.23765 11.8375 2.00805 12.0839 1.54885 12.0839Z"/>
        </g>
    </symbol>
    <!-- arrow-right -->
    <symbol id="svg-arrow-right" viewBox="0 0 40 40">
        <g>
            <path fill-rule="evenodd" clip-rule="evenodd" d="M36.6668 20C36.6668 29.2 29.1835 36.6666 20.0002 36.6666L19.5339 36.6602C10.5492 36.413 3.3335 29.044 3.3335 20C3.3335 10.8166 10.8002 3.33331 20.0002 3.33331C29.1835 3.33331 36.6668 10.8166 36.6668 20ZM16.7002 13.3333C16.2168 13.8333 16.2168 14.6166 16.7168 15.1L21.6335 20L16.7168 24.9C16.2168 25.3833 16.2168 26.1833 16.7002 26.6666C17.2002 27.1666 17.9835 27.1666 18.4668 26.6666L24.2835 20.8833C24.5168 20.65 24.6502 20.3333 24.6502 20C24.6502 19.6666 24.5168 19.35 24.2835 19.1166L18.4668 13.3333C18.2335 13.0833 17.9168 12.9666 17.6002 12.9666C17.2668 12.9666 16.9502 13.0833 16.7002 13.3333Z"/>
        </g>
    </symbol>
    <!-- arrow-left -->
    <symbol id="svg-arrow-left" viewBox="0 0 40 40">
        <g>
            <path fill-rule="evenodd" clip-rule="evenodd" d="M3.33317 20C3.33317 29.2 10.8165 36.6666 19.9998 36.6666L20.4661 36.6602C29.4508 36.413 36.6665 29.044 36.6665 20C36.6665 10.8166 29.1998 3.33331 19.9998 3.33331C10.8165 3.33331 3.33317 10.8166 3.33317 20ZM23.2998 13.3333C23.7832 13.8333 23.7832 14.6166 23.2832 15.1L18.3665 20L23.2832 24.9C23.7832 25.3833 23.7832 26.1833 23.2998 26.6666C22.7998 27.1666 22.0165 27.1666 21.5332 26.6666L15.7165 20.8833C15.4832 20.65 15.3498 20.3333 15.3498 20C15.3498 19.6666 15.4832 19.35 15.7165 19.1166L21.5332 13.3333C21.7665 13.0833 22.0832 12.9666 22.3998 12.9666C22.7332 12.9666 23.0498 13.0833 23.2998 13.3333Z"/>
        </g>
    </symbol>
</svg>